<?xml version="1.0" standalone="no"?><!DOCTYPE svg PUBLIC "-//W3C//DTD SVG 1.1//EN" "http://www.w3.org/Graphics/SVG/1.1/DTD/svg11.dtd"><svg t="1673588844938" class="icon" viewBox="0 0 1024 1024" version="1.1" xmlns="http://www.w3.org/2000/svg" p-id="4022" xmlns:xlink="http://www.w3.org/1999/xlink" width="48" height="48"><path d="M909.7728 517.376L746.3424 369.664a33.9456 33.9456 0 0 0-45.7728 0 26.7264 26.7264 0 0 0 0 41.3696L808.448 508.5184H494.592c-19.5584 0-32.6656 11.8272-32.6656 29.5424 0 17.7664 13.1072 29.5424 32.7168 29.5424H808.448L700.5696 665.1392a26.7264 26.7264 0 0 0 0 41.3696 31.1808 31.1808 0 0 0 22.8864 8.8576 31.232 31.232 0 0 0 22.8864-8.8576l163.4304-150.6816s0-2.9696 3.2768-2.9696a22.784 22.784 0 0 0-3.2768-35.4816z" p-id="4023" fill="#2c2c2c"></path><path d="M102.4 827.1872C102.4 880.6912 145.664 921.6 202.24 921.6h566.016c56.576 0 99.84-40.9088 99.84-94.4128v-62.976c0-18.8416-13.312-31.4368-33.28-31.4368s-33.28 12.5952-33.28 31.488v62.976c0 18.8416-13.312 31.4368-33.28 31.4368H202.24c-19.968 0-33.28-12.5952-33.28-31.488V197.8368c0-18.8928 13.312-31.488 33.28-31.488h565.9648c19.968 0 33.28 12.5952 33.28 31.488v62.9248c0 18.8928 13.312 31.488 33.28 31.488s33.28-12.5952 33.28-31.488v-62.976C868.096 144.384 824.832 103.424 768.256 103.424H202.24C145.664 103.424 102.4 144.3328 102.4 197.8368" p-id="4024" fill="#2c2c2c"></path></svg>