<?xml version="1.0" standalone="no"?><!DOCTYPE svg PUBLIC "-//W3C//DTD SVG 1.1//EN" "http://www.w3.org/Graphics/SVG/1.1/DTD/svg11.dtd"><svg t="1674274797872" class="icon" viewBox="0 0 1024 1024" version="1.1" xmlns="http://www.w3.org/2000/svg" p-id="16392" xmlns:xlink="http://www.w3.org/1999/xlink" width="48" height="48"><path d="M757.333333 128A138.666667 138.666667 0 0 1 896 266.666667v293.504a96 96 0 0 1-28.117333 67.84l-239.829334 239.872a96 96 0 0 1-67.882666 28.117333H266.666667A138.666667 138.666667 0 0 1 128 757.333333V266.666667A138.666667 138.666667 0 0 1 266.666667 128h490.666666z m0 64H266.666667A74.666667 74.666667 0 0 0 192 266.666667v490.666666c0 41.216 33.450667 74.666667 74.666667 74.666667H554.666667v-138.666667a138.666667 138.666667 0 0 1 130.816-138.453333L693.333333 554.666667h138.666667V266.666667a74.666667 74.666667 0 0 0-74.666667-74.666667z m29.397334 426.666667H693.333333a74.666667 74.666667 0 0 0-74.410666 68.565333l-0.256 6.101333v93.397334l168.064-168.064z" fill="#FF5252" p-id="16393"></path></svg>