<?xml version="1.0" standalone="no"?><!DOCTYPE svg PUBLIC "-//W3C//DTD SVG 1.1//EN" "http://www.w3.org/Graphics/SVG/1.1/DTD/svg11.dtd"><svg t="1673774783420" class="icon" viewBox="0 0 1024 1024" version="1.1" xmlns="http://www.w3.org/2000/svg" p-id="5424" xmlns:xlink="http://www.w3.org/1999/xlink" width="48" height="48"><path d="M951 299.269L724.726 72.995c-12.445-12.445-32.81-12.445-45.255 0s-12.445 32.81 0 45.255l6.844 6.844-399.412 191.022-15.786-15.786c-12.445-12.445-32.81-12.445-45.255 0s-12.445 32.81 0 45.255l196.42 196.42L64 960l417.996-358.282 196.415 196.415c12.445 12.445 32.81 12.445 45.255 0s12.445-32.81 0-45.255l-15.786-15.786L898.902 337.68l6.844 6.843c12.445 12.445 32.81 12.445 45.255 0 12.444-12.444 12.444-32.809-0.001-45.254z" p-id="5425" fill="#ffffff"></path></svg>