<?xml version="1.0" standalone="no"?><!DOCTYPE svg PUBLIC "-//W3C//DTD SVG 1.1//EN" "http://www.w3.org/Graphics/SVG/1.1/DTD/svg11.dtd"><svg t="1673774815903" class="icon" viewBox="0 0 1024 1024" version="1.1" xmlns="http://www.w3.org/2000/svg" p-id="5642" xmlns:xlink="http://www.w3.org/1999/xlink" width="48" height="48"><path d="M734.306 173.084l116.606 116.605-9.746 20.378-181.277 379.034L527.25 556.463l-17.806-17.806-41.908-41.907-132.642-132.643L713.928 182.83l20.378-9.746M702.099 63.661c-8.202 0-16.405 3.111-22.628 9.334-12.445 12.445-12.445 32.81 0 45.255l6.844 6.844-399.411 191.022-15.786-15.786c-6.223-6.223-14.425-9.334-22.628-9.334-8.202 0-16.405 3.111-22.627 9.334-12.445 12.445-12.445 32.81 0 45.255l196.42 196.419L64 960l417.996-358.282 196.415 196.415c6.222 6.223 14.425 9.334 22.627 9.334 8.202 0 16.405-3.111 22.627-9.334 12.445-12.445 12.445-32.81 0-45.255l-15.786-15.786L898.902 337.68l6.844 6.843c6.223 6.222 14.425 9.334 22.627 9.334s16.405-3.111 22.627-9.334c12.445-12.445 12.445-32.81 0-45.255L724.726 72.995c-6.222-6.223-14.425-9.334-22.627-9.334z" p-id="5643" fill="#ffffff"></path></svg>