<?xml version="1.0" standalone="no"?><!DOCTYPE svg PUBLIC "-//W3C//DTD SVG 1.1//EN" "http://www.w3.org/Graphics/SVG/1.1/DTD/svg11.dtd"><svg t="1673492072375" class="icon" viewBox="0 0 1024 1024" version="1.1" xmlns="http://www.w3.org/2000/svg" p-id="3659" xmlns:xlink="http://www.w3.org/1999/xlink" width="48" height="48"><path d="M774.4 246.4c-6.4-6.4-16-9.6-22.4-9.6-9.6 0-16 3.2-22.4 9.6l-67.2 67.2c-12.8 12.8-12.8 32 0 44.8 12.8 12.8 32 12.8 44.8 0l44.8-44.8 44.8 44.8c12.8 12.8 32 12.8 44.8 0 12.8-12.8 12.8-32 0-44.8l-67.2-67.2z" fill="#ffffff" p-id="3660"></path><path d="M896 128H128c-35.2 0-64 28.8-64 64v640c0 35.2 28.8 64 64 64h768c35.2 0 64-28.8 64-64V192c0-35.2-28.8-64-64-64z m0 672c0 16-12.8 32-32 32H160c-19.2 0-32-16-32-32V480h768v320z m0-384H128V224c0-16 12.8-32 32-32h704c19.2 0 32 16 32 32v192z" fill="#ffffff" p-id="3661"></path></svg>